<?xml version="1.0" standalone="no"?>
<!DOCTYPE svg PUBLIC "-//W3C//DTD SVG 20010904//EN"
 "http://www.w3.org/TR/2001/REC-SVG-20010904/DTD/svg10.dtd">
<svg version="1.0" xmlns="http://www.w3.org/2000/svg"
 width="260.000000pt" height="260.000000pt" viewBox="0 0 260.000000 260.000000"
 preserveAspectRatio="xMidYMid meet">
<metadata>
Created by potrace 1.11, written by Peter Selinger 2001-2013
</metadata>
<g transform="translate(0.000000,260.000000) scale(0.100000,-0.100000)"
fill="#000000" stroke="none">
<path d="M70 2293 c0 -131 0 -652 -1 -1158 0 -506 0 -953 0 -992 l1 -73 1225
0 1225 0 -2 1228 -3 1227 -1222 3 -1223 2 0 -237z m2425 -998 l0 -1200 -1200
0 -1200 0 -3 1203 -2 1202 1202 -2 1203 -3 0 -1200z"/>
<path d="M250 2160 l0 -150 90 0 90 0 0 90 0 90 285 0 285 0 0 -900 0 -899
-92 -3 -93 -3 0 -60 0 -60 460 0 460 0 0 60 0 60 -88 5 -88 5 -6 898 -5 897
286 0 286 0 0 -90 0 -90 90 0 90 0 0 150 0 150 -1025 0 -1025 0 0 -150z m1122
-630 c-1 -360 -2 -764 -2 -897 l0 -243 -95 0 -95 0 0 900 0 901 98 -3 97 -3
-3 -655z"/>
</g>
</svg>
